<?xml version="1.0" encoding="UTF-8" standalone="no"?>
<svg
   xmlns:dc="http://purl.org/dc/elements/1.1/"
   xmlns:cc="http://creativecommons.org/ns#"
   xmlns:rdf="http://www.w3.org/1999/02/22-rdf-syntax-ns#"
   xmlns:svg="http://www.w3.org/2000/svg"
   xmlns="http://www.w3.org/2000/svg"
   xmlns:sodipodi="http://sodipodi.sourceforge.net/DTD/sodipodi-0.dtd"
   xmlns:inkscape="http://www.inkscape.org/namespaces/inkscape"
   version="1.1"
   id="svg2"
   xml:space="preserve"
   width="525.44"
   height="178.66667"
   viewBox="0 0 525.44 178.66667"
   sodipodi:docname="dafiti.eps"><metadata
     id="metadata8"><rdf:RDF><cc:Work
         rdf:about=""><dc:format>image/svg+xml</dc:format><dc:type
           rdf:resource="http://purl.org/dc/dcmitype/StillImage" /></cc:Work></rdf:RDF></metadata><defs
     id="defs6" /><sodipodi:namedview
     pagecolor="#ffffff"
     bordercolor="#666666"
     borderopacity="1"
     objecttolerance="10"
     gridtolerance="10"
     guidetolerance="10"
     inkscape:pageopacity="0"
     inkscape:pageshadow="2"
     inkscape:window-width="640"
     inkscape:window-height="480"
     id="namedview4" /><g
     id="g10"
     inkscape:groupmode="layer"
     inkscape:label="ink_ext_XXXXXX"
     transform="matrix(1.3333333,0,0,-1.3333333,0,178.66667)"><g
       id="g12"
       transform="scale(0.1)"><path
         d="m 501.25,155.289 c -191.211,0 -346.223,155.27 -346.223,346.801 0,191.523 155.012,346.793 346.223,346.793 191.211,0 346.223,-155.27 346.223,-346.793 0,-191.531 -155.012,-346.801 -346.223,-346.801 z M 850.836,861.75 C 760.527,949.828 637.258,1004.17 501.25,1004.17 224.418,1004.17 0,779.379 0,502.09 0,224.789 224.418,0 501.25,0 637.258,0 760.527,54.3398 850.836,142.422 V 16.6719 H 1002.5 V 1340 H 850.836 V 861.75"
         style="fill:#000000;fill-opacity:1;fill-rule:nonzero;stroke:none"
         id="path14" /><path
         d="M 2885.84,16.6719 H 3037.5 V 990 H 2885.84 V 16.6719"
         style="fill:#000000;fill-opacity:1;fill-rule:nonzero;stroke:none"
         id="path16" /><path
         d="m 3789.17,16.6719 h 151.66 V 990 H 3789.17 V 16.6719"
         style="fill:#000000;fill-opacity:1;fill-rule:nonzero;stroke:none"
         id="path18" /><path
         d="M 2885.84,1183.34 H 3037.5 V 1340 h -151.66 v -156.66"
         style="fill:#000000;fill-opacity:1;fill-rule:nonzero;stroke:none"
         id="path20" /><path
         d="m 3789.17,1340 v -156.66 h 151.66 V 1340 h -151.66"
         style="fill:#000000;fill-opacity:1;fill-rule:nonzero;stroke:none"
         id="path22" /><path
         d="m 1607.92,155.289 c -191.22,0 -346.23,155.27 -346.23,346.801 0,191.523 155.01,346.793 346.23,346.793 191.21,0 346.22,-155.27 346.22,-346.793 0,-191.531 -155.01,-346.801 -346.22,-346.801 z m 349.58,706.453 c -90.31,88.086 -213.58,142.428 -349.58,142.428 -276.84,0 -501.25,-224.791 -501.25,-502.08 C 1106.67,224.789 1331.08,0 1607.92,0 c 136,0 259.27,54.3516 349.58,142.43 V 16.6719 h 151.66 V 990 H 1957.5 V 861.742"
         style="fill:#000000;fill-opacity:1;fill-rule:nonzero;stroke:none"
         id="path24" /><path
         d="M 2770.82,1178.13 V 1335.5 C 2577.77,1308.63 2419.91,1171.73 2362.48,990 h -13.31 -140.83 V 838.34 h 140.83 V 16.6719 h 151.66 V 838.34 h 280 V 990 h -251.84 c 46.4,95.41 135.18,166.33 241.83,188.13"
         style="fill:#000000;fill-opacity:1;fill-rule:nonzero;stroke:none"
         id="path26" /><path
         d="m 3407.51,1340 h -155.5 V 990 H 3140.84 V 838.34 h 111.17 V 465 C 3269.42,226.461 3453.1,34.3203 3687.5,4.25 v 157.102 c -147.4,27.726 -261.87,148.949 -279.53,299.918 -0.07,0.546 -0.46,6.652 -0.46,6.652 V 838.34 H 3687.5 V 990 h -279.99 v 350"
         style="fill:#000000;fill-opacity:1;fill-rule:nonzero;stroke:none"
         id="path28" /></g></g></svg>
